<svg id="logo" width="205" height="80" viewBox="0 0 200 80" xmlns="http://www.w3.org/2000/svg">
                <defs>
                    <linearGradient id="ballGradient" x1="0%" y1="0%" x2="100%" y2="100%">
                        <stop offset="0%" style="stop-color:#4CAF50;stop-opacity:1"></stop>
                        <stop offset="100%" style="stop-color:#2E7D32;stop-opacity:1"></stop>
                    </linearGradient>
                    <linearGradient id="fieldGradient" x1="0%" y1="0%" x2="100%" y2="100%">
                        <stop offset="0%" style="stop-color:#66BB6A;stop-opacity:1"></stop>
                        <stop offset="100%" style="stop-color:#388E3C;stop-opacity:1"></stop>
                    </linearGradient>
                    <filter id="shadow" x="-20%" y="-20%" width="140%" height="140%">
                        <feDropShadow dx="2" dy="2" stdDeviation="3" flood-color="#000000" flood-opacity="0.2"></feDropShadow>
                    </filter>
                </defs>

                <g transform="translate(10, 10)">
                    <rect x="0" y="0" width="50" height="35" rx="5" fill="url(#fieldGradient)" filter="url(#shadow)"></rect>
                    <line x1="5" y1="17.5" x2="45" y2="17.5" stroke="#ffffff" stroke-width="1.5" opacity="0.8"></line>
                    <circle cx="25" cy="17.5" r="8" fill="none" stroke="#ffffff" stroke-width="1.5" opacity="0.8"></circle>
                    <circle cx="25" cy="17.5" r="2" fill="#ffffff" opacity="0.8"></circle>
                    <rect x="0" y="10" width="8" height="15" fill="none" stroke="#ffffff" stroke-width="1.5" opacity="0.8"></rect>
                    <rect x="42" y="10" width="8" height="15" fill="none" stroke="#ffffff" stroke-width="1.5" opacity="0.8"></rect>
                    <circle cx="35" cy="12" r="4" fill="url(#ballGradient)" filter="url(#shadow)"></circle>
                    <path d="M 33 10 Q 35 8 37 10" fill="none" stroke="#ffffff" stroke-width="1" opacity="0.8"></path>
                    <path d="M 33 14 Q 35 12 37 14" fill="none" stroke="#ffffff" stroke-width="1" opacity="0.8"></path>
                    <circle cx="15" cy="25" r="3" fill="#FF5722"></circle>
                    <path d="M 15 22 L 15 28" stroke="#FF5722" stroke-width="2"></path>
                    <circle cx="15" cy="22" r="2" fill="#FF5722" opacity="0.8"></circle>
                </g>

                <text x="75" y="35" font-family="Arial, sans-serif" font-size="24" font-weight="bold" fill="#2E7D32">Sport</text>
                <text x="138" y="35" font-family="Arial, sans-serif" font-size="24" font-weight="bold" fill="#FF5722">Hub</text>
                <text x="75" y="50" font-family="Arial, sans-serif" font-size="10" fill="#666666">Tìm kiếm &amp; Đặt sân
                    thể thao</text>
`
                <circle cx="70" cy="20" r="2" fill="#4CAF50" opacity="0.6"></circle>
                <circle cx="70" cy="25" r="1.5" fill="#4CAF50" opacity="0.4"></circle>
                <circle cx="70" cy="30" r="1" fill="#4CAF50" opacity="0.3"></circle>
            </svg>